<svg xmlns="http://www.w3.org/2000/svg" xmlns:xlink="http://www.w3.org/1999/xlink" xml:space="preserve" width="191px" height="76px" style="shape-rendering:geometricPrecision; text-rendering:geometricPrecision; image-rendering:optimizeQuality; fill-rule:evenodd; clip-rule:evenodd" viewBox="0 0 19100 7600"> <defs> <style type="text/css"> .fil2 {fill:#FEFEFE} .fil3 {fill:#8490AB} .fil0 {fill:#FEFEFE;fill-rule:nonzero} .fil1 {fill:#8490AB;fill-rule:nonzero} </style> </defs> <g id="&#x421;&#x43B;&#x43E;&#x439;_x0020_2"> <metadata id="CorelCorpID_0Corel-Layer"></metadata> <path class="fil0" d="M8468 3224l-1145 0 0 -1c-15,1 -54,8 -94,33 -34,22 -65,62 -65,135l0 0 0 7c2,92 26,145 64,173 45,33 117,45 199,45l593 0c91,0 259,54 377,172 85,85 148,202 148,354 0,155 -46,275 -117,361 -89,110 -215,164 -338,169 -173,9 -1186,5 -1189,5l0 -320c3,0 1052,3 1174,-3 39,-2 79,-18 106,-52 27,-33 45,-85 45,-160 0,-55 -24,-98 -55,-129 -53,-53 -118,-78 -151,-78l-593 0c-143,0 -279,-27 -387,-107 -115,-85 -190,-218 -194,-422l-1 -14 0 -1c0,-209 101,-332 212,-403 103,-66 220,-82 260,-83l4 0 2 -1 1145 0 0 320z"></path> <polygon class="fil0" points="8796,4683 8800,2566 9118,2566 9116,3679 9845,3070 10342,3070 9429,3833 10360,4683 9887,4683 9115,3979 9114,4683 "></polygon> <path class="fil0" d="M10959 2562c0,5 -5,1629 7,1741 2,25 20,61 44,97 36,54 83,105 123,137l-200 248c-61,-49 -134,-127 -189,-210 -49,-75 -87,-159 -95,-240 -13,-123 -8,-1769 -8,-1774l318 1z"></path> <path class="fil0" d="M11573 2942l809 0c84,-7 546,-20 555,498 8,414 11,1223 11,1225l-319 0 0 -44c-99,48 -179,52 -180,52l-9 0 -701 0c-72,2 -435,-17 -444,-527 -10,-560 513,-545 514,-545l812 0c-1,-58 -1,-110 -2,-156 -4,-212 -213,-185 -214,-185l-11 1 -821 0 0 -319zm1053 1244c0,-86 -1,-177 -2,-267l-821 0c-1,0 -194,-6 -190,222 4,224 113,214 113,214l13 -1 698 0c25,-3 124,-26 189,-168z"></path> <path class="fil0" d="M14959 2563l-7 1628 -2 11c0,1 -83,485 -506,485l-673 0c-1,0 -515,11 -515,-536 0,-348 4,-616 4,-619l0 -16 2 -9c0,-1 66,-428 513,-428l477 0 17 3c0,0 189,35 369,155l3 -675 318 1zm-325 1595l1 -382c-24,-273 -338,-361 -409,-378l-451 0c-150,0 -189,123 -197,156 -1,55 -3,247 -3,597 0,221 196,217 196,217l673 0c136,0 181,-168 190,-210z"></path> <path class="fil1" d="M15294 4186l0 -824c0,-1 -5,-474 553,-476 167,-1 324,-1 453,-1 174,0 298,0 332,1 59,0 233,42 350,175 71,80 125,191 129,343 7,274 2,612 1,703l0 14c-1,53 -18,239 -115,374 -69,94 -170,165 -321,167 -92,2 -225,2 -360,3 -230,1 -463,1 -502,1l-4 0c-59,-2 -232,-23 -360,-137 -83,-73 -147,-180 -156,-334l0 -9zm319 -824l0 824c4,50 24,83 47,105 54,47 131,56 158,56 47,1 273,1 497,0 133,-1 265,-2 357,-3 30,0 51,-16 66,-36 47,-65 55,-163 55,-191l1 -13c1,-90 5,-422 -1,-693 -2,-64 -22,-109 -49,-139 -46,-52 -99,-68 -115,-68 -35,-1 -157,-1 -329,-1 -128,0 -284,0 -452,1 -237,1 -235,157 -235,158z"></path> <path class="fil0" d="M19015 3224l-1146 0 0 -1c-14,1 -53,8 -94,33 -33,22 -64,62 -64,135l-1 0 0 7c2,92 27,145 65,173 45,33 117,45 199,45l592 0c91,0 260,54 377,172 85,85 149,202 149,354 0,155 -47,275 -117,361 -90,110 -216,164 -338,169 -174,9 -1187,5 -1190,5l0 -320c3,0 1053,3 1175,-3 39,-2 78,-18 105,-52 27,-33 45,-85 45,-160 0,-55 -23,-98 -55,-129 -52,-53 -118,-78 -151,-78l-592 0c-144,0 -280,-27 -388,-107 -115,-85 -189,-218 -194,-422l0 -14 -1 -1c0,-209 101,-332 212,-403 103,-66 221,-82 260,-83l5 0 1 -1 1146 0 0 320z"></path> <path class="fil2" d="M677 2989l0 1689c0,0 -12,235 324,366 335,131 1837,786 1837,786 0,0 213,114 366,-37 152,-151 155,-228 155,-534 0,-306 3,-2780 3,-2780 -9,-284 -103,-421 -222,-499 -188,-123 -482,-64 -696,18 -212,82 -1431,581 -1526,622 -94,40 -225,67 -241,369zm4629 2768c-693,294 -1899,823 -2087,916 -242,120 -508,-20 -508,-20 0,0 -1825,-819 -2257,-998 -435,-181 -442,-437 -445,-512l1 -2689c5,-186 80,-327 311,-417 232,-89 2035,-840 2346,-976 312,-136 373,-111 646,-15 83,29 252,98 464,186l0 399c0,0 2,194 193,274 233,96 1140,465 1140,465 0,0 184,56 190,394 6,339 6,2993 6,2993z"></path> <path class="fil3" d="M5570 5631c202,-85 360,-151 437,-180 340,-129 318,-283 315,-784 -3,-501 0,-1746 -4,-2161 -3,-415 -35,-501 -642,-730 -424,-160 -1145,-466 -1635,-670l0 400c2,32 2,195 193,273 234,95 1140,465 1140,465 0,0 185,56 190,394 6,339 6,2993 6,2993z"></path> </g> </svg>